<svg width="14" height="16" viewBox="0 0 14 16" fill="none" xmlns="http://www.w3.org/2000/svg">
<path fill-rule="evenodd" clip-rule="evenodd" d="M9.80886 0.666626C12.1166 0.666626 13.6668 2.25263 13.6668 4.61285V11.3871C13.6668 13.7679 12.1643 15.3163 9.83896 15.3311L4.1922 15.3333C1.88446 15.3333 0.333496 13.7473 0.333496 11.3871V4.61285C0.333496 2.23127 1.83602 0.683569 4.16137 0.669573L9.80813 0.666626H9.80886ZM9.80886 1.7716L4.16504 1.77454C2.45626 1.78486 1.43451 2.84563 1.43451 4.61285V11.3871C1.43451 13.1661 2.4658 14.2283 4.19147 14.2283L9.83529 14.2261C11.5441 14.2158 12.5658 13.1536 12.5658 11.3871V4.61285C12.5658 2.83384 11.5353 1.7716 9.80886 1.7716ZM9.66727 10.592C9.97115 10.592 10.2178 10.8395 10.2178 11.1445C10.2178 11.4495 9.97115 11.697 9.66727 11.697H4.3677C4.06382 11.697 3.81719 11.4495 3.81719 11.1445C3.81719 10.8395 4.06382 10.592 4.3677 10.592H9.66727ZM9.66727 7.50803C9.97115 7.50803 10.2178 7.75554 10.2178 8.06051C10.2178 8.36548 9.97115 8.613 9.66727 8.613H4.3677C4.06382 8.613 3.81719 8.36548 3.81719 8.06051C3.81719 7.75554 4.06382 7.50803 4.3677 7.50803H9.66727ZM6.38969 4.43119C6.69357 4.43119 6.94019 4.67871 6.94019 4.98368C6.94019 5.28865 6.69357 5.53617 6.38969 5.53617H4.36748C4.0636 5.53617 3.81697 5.28865 3.81697 4.98368C3.81697 4.67871 4.0636 4.43119 4.36748 4.43119H6.38969Z" fill="#706C6C"/>
</svg>
