<svg width="16" height="16" viewBox="0 0 16 16" fill="none" xmlns="http://www.w3.org/2000/svg">
<path fill-rule="evenodd" clip-rule="evenodd" d="M3.86308 8.94019C6.92353 8.94019 7.05967 9.97814 7.05967 12.1368C7.05967 13.2183 7.05967 13.9878 6.60538 14.5511C6.08264 15.2002 5.13119 15.3334 3.86308 15.3334C2.59498 15.3334 1.64353 15.2002 1.12079 14.5511C0.666504 13.9878 0.666504 13.2191 0.666504 12.1556L1.23061 12.1368H0.666504C0.666504 9.97814 0.802641 8.94019 3.86308 8.94019ZM12.1366 8.94019C15.197 8.94019 15.3332 9.97814 15.3332 12.1368C15.3332 13.2183 15.3332 13.9878 14.8789 14.5511C14.3561 15.2002 13.4047 15.3334 12.1366 15.3334C10.8685 15.3334 9.91703 15.2002 9.3943 14.5511C8.94001 13.9878 8.94001 13.2191 8.94001 12.1556L9.50411 12.1368H8.94001C8.94001 9.97814 9.07614 8.94019 12.1366 8.94019ZM4.01815 10.0687L3.86308 10.0684C1.90078 10.0684 1.80015 10.2092 1.79499 11.8563L1.7953 12.4979C1.79887 13.153 1.82383 13.6262 1.99854 13.8441C2.19785 14.0908 2.78979 14.2051 3.86308 14.2051C4.93638 14.2051 5.52832 14.0901 5.72763 13.8434C5.93146 13.5899 5.93146 12.9882 5.93146 12.1548C5.93146 10.2743 5.93146 10.0776 4.01815 10.0687ZM12.2916 10.0687L12.1366 10.0684C10.1743 10.0684 10.0737 10.2092 10.0685 11.8563L10.0688 12.4979C10.0724 13.153 10.0973 13.6262 10.272 13.8441C10.4714 14.0908 11.0633 14.2051 12.1366 14.2051C13.2099 14.2051 13.8018 14.0901 14.0011 13.8434C14.205 13.5899 14.205 12.9882 14.205 12.1548C14.205 10.2743 14.205 10.0776 12.2916 10.0687ZM3.86308 0.666687C6.92353 0.666687 7.05967 1.70464 7.05967 3.86327C7.05967 4.94484 7.05967 5.71428 6.60538 6.27763C6.08264 6.92672 5.13119 7.05985 3.86308 7.05985C2.59498 7.05985 1.64353 6.92672 1.12079 6.27763C0.666504 5.71428 0.666504 4.94559 0.666504 3.88207L1.23061 3.86327H0.666504C0.666504 1.70464 0.802641 0.666687 3.86308 0.666687ZM12.1366 0.666687C15.197 0.666687 15.3332 1.70464 15.3332 3.86327C15.3332 4.94484 15.3332 5.71428 14.8789 6.27763C14.3561 6.92672 13.4047 7.05985 12.1366 7.05985C10.8685 7.05985 9.91703 6.92672 9.3943 6.27763C8.94001 5.71428 8.94001 4.94559 8.94001 3.88207L9.50411 3.86327H8.94001C8.94001 1.70464 9.07614 0.666687 12.1366 0.666687ZM4.01815 1.79523L3.86308 1.79489C1.90078 1.79489 1.80015 1.9357 1.79499 3.58276L1.7953 4.22443C1.79887 4.87951 1.82383 5.35271 1.99854 5.57062C2.19785 5.81732 2.78979 5.93164 3.86308 5.93164C4.93638 5.93164 5.52832 5.81657 5.72763 5.56987C5.93146 5.3164 5.93146 4.71469 5.93146 3.88132C5.93146 2.00082 5.93146 1.80408 4.01815 1.79523ZM12.2916 1.79523L12.1366 1.79489C10.1743 1.79489 10.0737 1.9357 10.0685 3.58276L10.0688 4.22443C10.0724 4.87951 10.0973 5.35271 10.272 5.57062C10.4714 5.81732 11.0633 5.93164 12.1366 5.93164C13.2099 5.93164 13.8018 5.81657 14.0011 5.56987C14.205 5.3164 14.205 4.71469 14.205 3.88132C14.205 2.00082 14.205 1.80408 12.2916 1.79523Z" fill="#706C6C"/>
</svg>
