<svg width="14" height="14" viewBox="0 0 14 14" fill="none" xmlns="http://www.w3.org/2000/svg">
<path fill-rule="evenodd" clip-rule="evenodd" d="M9.90621 0.333313C12.1555 0.333313 13.6668 1.91223 13.6668 4.262V9.73796C13.6668 12.0877 12.1555 13.6666 9.90621 13.6666H4.09412C1.84481 13.6666 0.333496 12.0877 0.333496 9.73796V4.262C0.333496 1.91223 1.84481 0.333313 4.09412 0.333313H9.90621ZM9.90621 1.26355H4.09412C2.37505 1.26355 1.26373 2.43998 1.26373 4.262V9.73796C1.26373 11.56 2.37505 12.7364 4.09412 12.7364H9.90621C11.6259 12.7364 12.7366 11.56 12.7366 9.73796V4.262C12.7366 2.43998 11.6259 1.26355 9.90621 1.26355ZM4.12953 5.42014C4.38627 5.42014 4.59464 5.62851 4.59464 5.88525V10.1395C4.59464 10.3963 4.38627 10.6046 4.12953 10.6046C3.87278 10.6046 3.66441 10.3963 3.66441 10.1395V5.88525C3.66441 5.62851 3.87278 5.42014 4.12953 5.42014ZM7.02379 3.38355C7.28054 3.38355 7.48891 3.59192 7.48891 3.84866V10.1389C7.48891 10.3956 7.28054 10.604 7.02379 10.604C6.76705 10.604 6.55867 10.3956 6.55867 10.1389V3.84866C6.55867 3.59192 6.76705 3.38355 7.02379 3.38355ZM9.87049 7.6682C10.1272 7.6682 10.3356 7.87657 10.3356 8.13331V10.1389C10.3356 10.3956 10.1272 10.604 9.87049 10.604C9.61374 10.604 9.40537 10.3956 9.40537 10.1389V8.13331C9.40537 7.87657 9.61374 7.6682 9.87049 7.6682Z" fill="#706C6C"/>
</svg>
