<svg width="14" height="14" viewBox="0 0 14 14" fill="none" xmlns="http://www.w3.org/2000/svg">
<path d="M10.5661 5.7796C10.7302 5.569 10.6914 5.26566 10.4795 5.10208C10.2676 4.93721 9.964 4.9765 9.79991 5.18838L8.2062 7.23831L6.38444 5.8118C6.28301 5.73129 6.1551 5.69523 6.02461 5.71197C5.8967 5.72807 5.77977 5.79441 5.70096 5.89681L3.76744 8.40207C3.60399 8.61331 3.64405 8.91665 3.85594 9.07959C3.9438 9.14656 4.04781 9.17941 4.15117 9.17941C4.29652 9.17941 4.43994 9.11436 4.53555 8.99071L6.17061 6.87251L7.99107 8.29838C8.09314 8.3776 8.22105 8.41495 8.35026 8.39756C8.47817 8.3821 8.59445 8.31577 8.67326 8.21401L10.5661 5.7796Z" fill="#706C6C"/>
<path fill-rule="evenodd" clip-rule="evenodd" d="M13.6668 4.26206C13.6668 1.91229 12.1555 0.333374 9.90621 0.333374H4.09412C1.84481 0.333374 0.333496 1.91229 0.333496 4.26206V9.73803C0.333496 12.0878 1.84481 13.6667 4.09412 13.6667H9.90621C12.1555 13.6667 13.6668 12.0878 13.6668 9.73803V4.26206ZM4.09412 1.26361H9.90621C11.6259 1.26361 12.7366 2.44004 12.7366 4.26206V9.73803C12.7366 11.56 11.6259 12.7365 9.90621 12.7365H4.09412C2.37505 12.7365 1.26373 11.56 1.26373 9.73803V4.26206C1.26373 2.44004 2.37505 1.26361 4.09412 1.26361Z" fill="#706C6C"/>
</svg>
